<svg xmlns="http://www.w3.org/2000/svg" width="1600" height="1000" viewBox="0 0 1600 1000" font-family="sans-serif">
  <rect width="1600" height="1000" fill="#0B0F19"/>
  <rect x="0" y="0" width="1600" height="56" fill="#161f31"/>
  <rect x="0" y="56" width="1600" height="1" fill="#1F2937"/>
  <circle cx="30" cy="28" r="6" fill="#ef4444" opacity="0.8"/>
  <circle cx="54" cy="28" r="6" fill="#eab308" opacity="0.8"/>
  <circle cx="78" cy="28" r="6" fill="#22c55e" opacity="0.8"/>
  <rect x="120" y="16" width="900" height="26" rx="8" fill="#111827" stroke="#1F2937"/>
  <text x="140" y="34" font-family="monospace" font-size="14" fill="#9CA3AF">bca-notes.app/notes/dbms</text><rect x="0" y="57" width="220" height="943" fill="#111827"/><rect x="30" y="90" width="150" height="20" rx="5" fill="#F9FAFB"/><rect x="30" y="140" width="160" height="18" rx="5" fill="#1F2937" opacity="1"/><rect x="30" y="184" width="160" height="18" rx="5" fill="#1F2937" opacity="1"/><rect x="30" y="228" width="120" height="18" rx="5" fill="#3B82F6" opacity="1"/><rect x="30" y="272" width="160" height="18" rx="5" fill="#1F2937" opacity="1"/><rect x="30" y="316" width="160" height="18" rx="5" fill="#1F2937" opacity="1"/><rect x="30" y="360" width="160" height="18" rx="5" fill="#1F2937" opacity="1"/><rect x="30" y="404" width="160" height="18" rx="5" fill="#1F2937" opacity="1"/><rect x="30" y="448" width="160" height="18" rx="5" fill="#1F2937" opacity="1"/><rect x="280" y="110" width="500" height="40" rx="8" fill="#F9FAFB"/><rect x="280" y="170" width="300" height="18" rx="5" fill="#3B82F6"/><rect x="280" y="230" width="1180" height="14" rx="4" fill="#1F2937"/><rect x="280" y="270" width="1180" height="14" rx="4" fill="#1F2937"/><rect x="280" y="310" width="900" height="14" rx="4" fill="#1F2937"/><rect x="280" y="350" width="1180" height="14" rx="4" fill="#1F2937"/><rect x="280" y="390" width="1180" height="14" rx="4" fill="#1F2937"/><rect x="280" y="430" width="900" height="14" rx="4" fill="#1F2937"/><rect x="280" y="470" width="1180" height="14" rx="4" fill="#1F2937"/><rect x="280" y="510" width="1180" height="14" rx="4" fill="#1F2937"/><rect x="280" y="550" width="900" height="14" rx="4" fill="#1F2937"/><rect x="280" y="590" width="1180" height="14" rx="4" fill="#1F2937"/><rect x="280" y="630" width="1180" height="14" rx="4" fill="#1F2937"/><rect x="280" y="670" width="900" height="14" rx="4" fill="#1F2937"/><rect x="280" y="760" width="1180" height="1" fill="#1F2937"/><rect x="280" y="790" width="160" height="40" rx="9" fill="#161f31" stroke="#1F2937"/><rect x="460" y="790" width="160" height="40" rx="9" fill="#3B82F6"/></svg>