<svg xmlns="http://www.w3.org/2000/svg" width="1600" height="1000" viewBox="0 0 1600 1000" font-family="sans-serif">
  <rect width="1600" height="1000" fill="#0B0F19"/>
  <defs>
      <pattern id="grid" width="40" height="40" patternUnits="userSpaceOnUse">
        <path d="M40 0H0V40" fill="none" stroke="#1F2937" stroke-opacity="0.4" stroke-width="1"/>
      </pattern>
      <linearGradient id="glow" x1="0" y1="0" x2="1" y2="1">
        <stop offset="0%" stop-color="#3B82F6" stop-opacity="0.35"/>
        <stop offset="100%" stop-color="#3B82F6" stop-opacity="0"/>
      </linearGradient>
      <linearGradient id="panelg" x1="0" y1="0" x2="0" y2="1">
        <stop offset="0%" stop-color="#161f31"/>
        <stop offset="100%" stop-color="#111827"/>
      </linearGradient>
    </defs>
  <rect width="1600" height="1000" fill="url(#grid)"/>
  <rect width="1600" height="1000" fill="url(#glow)" opacity="0.6"/>
  <!-- left text block -->
  <g transform="translate(90,150)">
    <rect x="0" y="0" width="120" height="34" rx="17" fill="#111827" stroke="#1F2937"/>
    <text x="60" y="23" font-family="monospace" font-size="14" fill="#3B82F6" text-anchor="middle">Next.js</text>
    <text x="0" y="110" font-size="76" font-weight="700" fill="#F9FAFB">BCA Notes</text>
    <text x="0" y="165" font-size="30" fill="#9CA3AF">Study notes platform</text>
    <g transform="translate(0,215)"><g transform="translate(0,0)"><rect width="73.39999999999999" height="30" rx="7" fill="#111827" stroke="#1F2937"/><text x="36.699999999999996" y="20" font-family="monospace" font-size="13" fill="#9CA3AF" text-anchor="middle">Next.js</text></g><g transform="translate(81.39999999999999,0)"><rect width="57.0" height="30" rx="7" fill="#111827" stroke="#1F2937"/><text x="28.5" y="20" font-family="monospace" font-size="13" fill="#9CA3AF" text-anchor="middle">React</text></g><g transform="translate(146.39999999999998,0)"><rect width="81.6" height="30" rx="7" fill="#111827" stroke="#1F2937"/><text x="40.8" y="20" font-family="monospace" font-size="13" fill="#9CA3AF" text-anchor="middle">Tailwind</text></g><g transform="translate(235.99999999999997,0)"><rect width="81.6" height="30" rx="7" fill="#111827" stroke="#1F2937"/><text x="40.8" y="20" font-family="monospace" font-size="13" fill="#9CA3AF" text-anchor="middle">Firebase</text></g></g>
  </g>
  <!-- mockup window -->
  <g transform="translate(760,230)">
    <g><rect x="0" y="0" width="720" height="36" rx="10 10 0 0" fill="#161f31" /><circle cx="18" cy="18" r="5" fill="#ef4444" opacity="0.8"/><circle cx="36" cy="18" r="5" fill="#eab308" opacity="0.8"/><circle cx="54" cy="18" r="5" fill="#22c55e" opacity="0.8"/><rect x="0" y="36" width="720" height="524" rx="0 0 10 10" fill="#111827" /><rect x="0" y="36" width="720" height="1" fill="#1F2937"/><rect x="0" y="36" width="180" height="524" fill="#161f31"/><rect x="20" y="80" width="140" height="14" rx="4" fill="#1F2937"/><rect x="20" y="120" width="140" height="14" rx="4" fill="#1F2937"/><rect x="20" y="160" width="140" height="14" rx="4" fill="#1F2937"/><rect x="20" y="200" width="140" height="14" rx="4" fill="#1F2937"/><rect x="20" y="240" width="140" height="14" rx="4" fill="#1F2937"/><rect x="20" y="280" width="140" height="14" rx="4" fill="#1F2937"/><rect x="210" y="70" width="230" height="120" rx="12" fill="#161f31" stroke="#1F2937"/><rect x="228" y="88" width="60" height="14" rx="4" fill="#3B82F6" opacity="0.7"/><rect x="228" y="114" width="150" height="12" rx="4" fill="#1F2937"/><rect x="228" y="134" width="110" height="12" rx="4" fill="#1F2937"/><rect x="460" y="70" width="230" height="120" rx="12" fill="#161f31" stroke="#1F2937"/><rect x="478" y="88" width="60" height="14" rx="4" fill="#3B82F6" opacity="0.7"/><rect x="478" y="114" width="150" height="12" rx="4" fill="#1F2937"/><rect x="478" y="134" width="110" height="12" rx="4" fill="#1F2937"/><rect x="210" y="220" width="230" height="120" rx="12" fill="#161f31" stroke="#1F2937"/><rect x="228" y="238" width="60" height="14" rx="4" fill="#3B82F6" opacity="0.7"/><rect x="228" y="264" width="150" height="12" rx="4" fill="#1F2937"/><rect x="228" y="284" width="110" height="12" rx="4" fill="#1F2937"/><rect x="460" y="220" width="230" height="120" rx="12" fill="#161f31" stroke="#1F2937"/><rect x="478" y="238" width="60" height="14" rx="4" fill="#3B82F6" opacity="0.7"/><rect x="478" y="264" width="150" height="12" rx="4" fill="#1F2937"/><rect x="478" y="284" width="110" height="12" rx="4" fill="#1F2937"/><rect x="210" y="370" width="230" height="120" rx="12" fill="#161f31" stroke="#1F2937"/><rect x="228" y="388" width="60" height="14" rx="4" fill="#3B82F6" opacity="0.7"/><rect x="228" y="414" width="150" height="12" rx="4" fill="#1F2937"/><rect x="228" y="434" width="110" height="12" rx="4" fill="#1F2937"/><rect x="460" y="370" width="230" height="120" rx="12" fill="#161f31" stroke="#1F2937"/><rect x="478" y="388" width="60" height="14" rx="4" fill="#3B82F6" opacity="0.7"/><rect x="478" y="414" width="150" height="12" rx="4" fill="#1F2937"/><rect x="478" y="434" width="110" height="12" rx="4" fill="#1F2937"/></g>
  </g>
</svg>