<svg xmlns="http://www.w3.org/2000/svg" width="1600" height="1000" viewBox="0 0 1600 1000" font-family="sans-serif">
  <rect width="1600" height="1000" fill="#0B0F19"/>
  <rect x="0" y="0" width="1600" height="56" fill="#161f31"/>
  <rect x="0" y="56" width="1600" height="1" fill="#1F2937"/>
  <circle cx="30" cy="28" r="6" fill="#ef4444" opacity="0.8"/>
  <circle cx="54" cy="28" r="6" fill="#eab308" opacity="0.8"/>
  <circle cx="78" cy="28" r="6" fill="#22c55e" opacity="0.8"/>
  <rect x="120" y="16" width="900" height="26" rx="8" fill="#111827" stroke="#1F2937"/>
  <text x="140" y="34" font-family="monospace" font-size="14" fill="#9CA3AF">bca-notes.app</text><rect x="0" y="57" width="1600" height="64" fill="#111827"/><rect x="60" y="78" width="140" height="22" rx="6" fill="#F9FAFB"/><rect x="1280" y="76" width="100" height="26" rx="8" fill="#3B82F6"/><rect x="1100" y="80" width="60" height="18" rx="5" fill="#9CA3AF" opacity="0.5"/><rect x="1200" y="80" width="60" height="18" rx="5" fill="#9CA3AF" opacity="0.5"/><text x="800" y="220" font-size="46" font-weight="700" fill="#F9FAFB" text-anchor="middle">BCA Notes</text><text x="800" y="266" font-size="22" fill="#9CA3AF" text-anchor="middle">Organized semester-wise study material</text><rect x="690" y="300" width="220" height="46" rx="10" fill="#3B82F6"/><text x="800" y="330" font-size="18" fill="#fff" text-anchor="middle">Browse Notes</text><rect x="90" y="420" width="430" height="190" rx="16" fill="#111827" stroke="#1F2937"/><rect x="116" y="448" width="120" height="26" rx="7" fill="#3B82F6" opacity="0.8"/><text x="176" y="467" font-size="14" fill="#fff" text-anchor="middle">Semester 1</text><rect x="116" y="496" width="300" height="14" rx="4" fill="#1F2937"/><rect x="116" y="524" width="230" height="14" rx="4" fill="#1F2937"/><rect x="116" y="552" width="160" height="14" rx="4" fill="#1F2937"/><rect x="580" y="420" width="430" height="190" rx="16" fill="#111827" stroke="#1F2937"/><rect x="606" y="448" width="120" height="26" rx="7" fill="#3B82F6" opacity="0.8"/><text x="666" y="467" font-size="14" fill="#fff" text-anchor="middle">Semester 2</text><rect x="606" y="496" width="300" height="14" rx="4" fill="#1F2937"/><rect x="606" y="524" width="230" height="14" rx="4" fill="#1F2937"/><rect x="606" y="552" width="160" height="14" rx="4" fill="#1F2937"/><rect x="1070" y="420" width="430" height="190" rx="16" fill="#111827" stroke="#1F2937"/><rect x="1096" y="448" width="120" height="26" rx="7" fill="#3B82F6" opacity="0.8"/><text x="1156" y="467" font-size="14" fill="#fff" text-anchor="middle">Semester 3</text><rect x="1096" y="496" width="300" height="14" rx="4" fill="#1F2937"/><rect x="1096" y="524" width="230" height="14" rx="4" fill="#1F2937"/><rect x="1096" y="552" width="160" height="14" rx="4" fill="#1F2937"/><rect x="90" y="650" width="430" height="190" rx="16" fill="#111827" stroke="#1F2937"/><rect x="116" y="678" width="120" height="26" rx="7" fill="#3B82F6" opacity="0.8"/><text x="176" y="697" font-size="14" fill="#fff" text-anchor="middle">Semester 4</text><rect x="116" y="726" width="300" height="14" rx="4" fill="#1F2937"/><rect x="116" y="754" width="230" height="14" rx="4" fill="#1F2937"/><rect x="116" y="782" width="160" height="14" rx="4" fill="#1F2937"/><rect x="580" y="650" width="430" height="190" rx="16" fill="#111827" stroke="#1F2937"/><rect x="606" y="678" width="120" height="26" rx="7" fill="#3B82F6" opacity="0.8"/><text x="666" y="697" font-size="14" fill="#fff" text-anchor="middle">Semester 5</text><rect x="606" y="726" width="300" height="14" rx="4" fill="#1F2937"/><rect x="606" y="754" width="230" height="14" rx="4" fill="#1F2937"/><rect x="606" y="782" width="160" height="14" rx="4" fill="#1F2937"/><rect x="1070" y="650" width="430" height="190" rx="16" fill="#111827" stroke="#1F2937"/><rect x="1096" y="678" width="120" height="26" rx="7" fill="#3B82F6" opacity="0.8"/><text x="1156" y="697" font-size="14" fill="#fff" text-anchor="middle">Semester 6</text><rect x="1096" y="726" width="300" height="14" rx="4" fill="#1F2937"/><rect x="1096" y="754" width="230" height="14" rx="4" fill="#1F2937"/><rect x="1096" y="782" width="160" height="14" rx="4" fill="#1F2937"/></svg>