<svg xmlns="http://www.w3.org/2000/svg" width="1600" height="1000" viewBox="0 0 1600 1000" font-family="sans-serif">
  <rect width="1600" height="1000" fill="#0B0F19"/>
  <rect x="0" y="0" width="1600" height="56" fill="#161f31"/>
  <rect x="0" y="56" width="1600" height="1" fill="#1F2937"/>
  <circle cx="30" cy="28" r="6" fill="#ef4444" opacity="0.8"/>
  <circle cx="54" cy="28" r="6" fill="#eab308" opacity="0.8"/>
  <circle cx="78" cy="28" r="6" fill="#22c55e" opacity="0.8"/>
  <rect x="120" y="16" width="900" height="26" rx="8" fill="#111827" stroke="#1F2937"/>
  <text x="140" y="34" font-family="monospace" font-size="14" fill="#9CA3AF">teraplay.shakiransari.dev</text><text x="800" y="160" font-size="34" font-weight="700" fill="#F9FAFB" text-anchor="middle">Responsive on every screen</text><rect x="620" y="220" width="360" height="720" rx="40" fill="#111827" stroke="#1F2937" stroke-width="3"/><rect x="640" y="260" width="320" height="640" rx="20" fill="#0B0F19"/><rect x="640" y="260" width="320" height="50" rx="20" fill="#161f31"/><rect x="660" y="278" width="120" height="16" rx="4" fill="#F9FAFB"/><rect x="660" y="340" width="280" height="40" rx="10" fill="#111827" stroke="#1F2937"/><rect x="660" y="400" width="280" height="44" rx="10" fill="#3B82F6"/><rect x="660" y="470" width="280" height="160" rx="12" fill="#000"/><circle cx="800" cy="550" r="28" fill="#3B82F6" opacity="0.9"/><polygon points="790,534 790,566 812,550" fill="#fff"/><rect x="660" y="650" width="280" height="6" rx="3" fill="#1F2937"/><rect x="660" y="650" width="120" height="6" rx="3" fill="#3B82F6"/><rect x="660" y="700" width="280" height="18" rx="5" fill="#1F2937"/><rect x="660" y="750" width="240" height="18" rx="5" fill="#1F2937"/><rect x="660" y="800" width="200" height="18" rx="5" fill="#1F2937"/><rect x="660" y="850" width="160" height="18" rx="5" fill="#1F2937"/><rect x="120" y="380" width="360" height="240" rx="16" fill="#111827" stroke="#1F2937" opacity="0.7"/><rect x="1120" y="380" width="360" height="240" rx="16" fill="#111827" stroke="#1F2937" opacity="0.7"/><text x="800" y="900" font-size="16" fill="#9CA3AF" text-anchor="middle">Mobile-first · adaptive layout</text></svg>