<svg xmlns="http://www.w3.org/2000/svg" width="1600" height="1000" viewBox="0 0 1600 1000" font-family="sans-serif">
  <rect width="1600" height="1000" fill="#0d0d0d"/>
  <rect x="0" y="0" width="1600" height="56" fill="#1c1c1c"/>
  <rect x="0" y="56" width="1600" height="1" fill="#2d2d2d"/>
  <circle cx="30" cy="28" r="6" fill="#ef4444" opacity="0.8"/>
  <circle cx="54" cy="28" r="6" fill="#eab308" opacity="0.8"/>
  <circle cx="78" cy="28" r="6" fill="#22c55e" opacity="0.8"/>
  <rect x="120" y="14" width="900" height="28" rx="6" fill="#121212" stroke="#2d2d2d" stroke-width="1"/>
  <text x="140" y="32" font-family="monospace" font-size="14" fill="#8f8f8f">tera-core.vercel.app/status</text>
  
  <text x="800" y="160" font-size="34" font-weight="700" fill="#ffffff" text-anchor="middle">Deployment Architecture</text>
  
  <!-- Client box -->
  <rect x="120" y="420" width="200" height="120" rx="12" fill="#161616" stroke="#2d2d2d" stroke-width="1.5"/>
  <text x="220" y="470" font-size="18" font-weight="600" fill="#ffffff" text-anchor="middle">Client</text>
  <text x="220" y="498" font-size="14" fill="#a3a3a3" text-anchor="middle">Browser / App</text>
  
  <!-- Cloudflare box (Highlighted) -->
  <rect x="470" y="420" width="240" height="120" rx="12" fill="#1c1c1c" stroke="#ffffff" stroke-width="2"/>
  <text x="590" y="470" font-size="18" font-weight="700" fill="#ffffff" text-anchor="middle">Cloudflare</text>
  <text x="590" y="498" font-size="14" fill="#a3a3a3" text-anchor="middle">CDN · TLS · Cache</text>
  
  <!-- Vercel box -->
  <rect x="900" y="250" width="280" height="120" rx="12" fill="#161616" stroke="#2d2d2d" stroke-width="1.5"/>
  <text x="1040" y="300" font-size="18" font-weight="600" fill="#ffffff" text-anchor="middle">Vercel</text>
  <text x="1040" y="328" font-size="14" fill="#a3a3a3" text-anchor="middle">Serverless (primary)</text>
  
  <!-- Render box -->
  <rect x="900" y="590" width="280" height="120" rx="12" fill="#161616" stroke="#2d2d2d" stroke-width="1.5"/>
  <text x="1040" y="640" font-size="18" font-weight="600" fill="#ffffff" text-anchor="middle">Render</text>
  <text x="1040" y="668" font-size="14" fill="#a3a3a3" text-anchor="middle">Persistent (fallback)</text>
  
  <!-- Flask API box -->
  <rect x="1340" y="420" width="180" height="120" rx="12" fill="#161616" stroke="#2d2d2d" stroke-width="1.5"/>
  <text x="1430" y="470" font-size="18" font-weight="600" fill="#ffffff" text-anchor="middle">Flask API</text>
  <text x="1430" y="498" font-size="14" fill="#a3a3a3" text-anchor="middle">Resolver</text>
  
  <!-- Connecting lines and dots -->
  <line x1="320" y1="480" x2="470" y2="480" stroke="#737373" stroke-width="2" opacity="0.6"/>
  <circle cx="470" cy="480" r="5" fill="#737373"/>
  
  <line x1="710" y1="470" x2="900" y2="330" stroke="#a3a3a3" stroke-width="2" opacity="0.8"/>
  <circle cx="900" cy="330" r="5" fill="#a3a3a3"/>
  
  <line x1="710" y1="490" x2="900" y2="620" stroke="#a3a3a3" stroke-width="2" opacity="0.8"/>
  <circle cx="900" cy="620" r="5" fill="#a3a3a3"/>
  
  <line x1="1180" y1="330" x2="1340" y2="460" stroke="#737373" stroke-width="2" opacity="0.6"/>
  <circle cx="1340" cy="460" r="5" fill="#737373"/>
  
  <line x1="1180" y1="620" x2="1340" y2="500" stroke="#737373" stroke-width="2" opacity="0.6"/>
  <circle cx="1340" cy="500" r="5" fill="#737373"/>
  
  <text x="800" y="820" font-size="16" fill="#a3a3a3" text-anchor="middle">Redundant deployment · automatic failover · edge caching</text>
</svg>