<svg xmlns="http://www.w3.org/2000/svg" width="1600" height="1000" viewBox="0 0 1600 1000" font-family="sans-serif">
  <rect width="1600" height="1000" fill="#0B0F19"/>
  <rect x="0" y="0" width="1600" height="56" fill="#161f31"/>
  <rect x="0" y="56" width="1600" height="1" fill="#1F2937"/>
  <circle cx="30" cy="28" r="6" fill="#ef4444" opacity="0.8"/>
  <circle cx="54" cy="28" r="6" fill="#eab308" opacity="0.8"/>
  <circle cx="78" cy="28" r="6" fill="#22c55e" opacity="0.8"/>
  <rect x="120" y="16" width="900" height="26" rx="8" fill="#111827" stroke="#1F2937"/>
  <text x="140" y="34" font-family="monospace" font-size="14" fill="#9CA3AF">terabridge-api.vercel.app/api/resolve</text><rect x="0" y="57" width="1600" height="70" fill="#111827"/><rect x="60" y="74" width="70" height="34" rx="7" fill="#3B82F6"/><text x="95" y="96" font-size="14" fill="#fff" text-anchor="middle">GET</text><rect x="150" y="74" width="900" height="34" rx="7" fill="#0B0F19" stroke="#1F2937"/><text x="170" y="96" font-family="monospace" font-size="15" fill="#9CA3AF">/api/resolve?url=terabox.com/share/...</text><rect x="1070" y="74" width="110" height="34" rx="7" fill="#3B82F6"/><text x="1125" y="96" font-size="14" fill="#fff" text-anchor="middle">Send</text><rect x="60" y="160" width="1480" height="780" rx="16" fill="#111827" stroke="#1F2937"/><rect x="60" y="160" width="1480" height="46" rx="16" fill="#161f31"/><rect x="60" y="200" width="1480" height="6" fill="#161f31"/><text x="84" y="189" font-family="monospace" font-size="15" fill="#9CA3AF">Response  200 OK  ·  application/json</text><text x="100" y="260" font-family="monospace" font-size="22" fill="#9CA3AF">{</text><text x="100" y="310" font-family="monospace" font-size="22" fill="#22c55e">  "success": true,</text><text x="100" y="360" font-family="monospace" font-size="22" fill="#9CA3AF">  "data": {</text><text x="100" y="410" font-family="monospace" font-size="22" fill="#F9FAFB">    "title": "lecture_07.mp4",</text><text x="100" y="460" font-family="monospace" font-size="22" fill="#F9FAFB">    "size": "1.24 GB",</text><text x="100" y="510" font-family="monospace" font-size="22" fill="#F9FAFB">    "mime": "video/mp4",</text><text x="100" y="560" font-family="monospace" font-size="22" fill="#3B82F6">    "stream_url": "https://d.terabox.../play.m3u8",</text><text x="100" y="610" font-family="monospace" font-size="22" fill="#3B82F6">    "download_url": "https://d.terabox.../file.mp4",</text><text x="100" y="660" font-family="monospace" font-size="22" fill="#F9FAFB">    "thumbnail": "https://.../thumb.jpg"</text><text x="100" y="710" font-family="monospace" font-size="22" fill="#9CA3AF">  }</text><text x="100" y="760" font-family="monospace" font-size="22" fill="#9CA3AF">}</text></svg>