<svg xmlns="http://www.w3.org/2000/svg" width="1600" height="1000" viewBox="0 0 1600 1000" font-family="sans-serif">
  <rect width="1600" height="1000" fill="#0B0F19"/>
  <rect x="0" y="0" width="1600" height="56" fill="#161f31"/>
  <rect x="0" y="56" width="1600" height="1" fill="#1F2937"/>
  <circle cx="30" cy="28" r="6" fill="#ef4444" opacity="0.8"/>
  <circle cx="54" cy="28" r="6" fill="#eab308" opacity="0.8"/>
  <circle cx="78" cy="28" r="6" fill="#22c55e" opacity="0.8"/>
  <rect x="120" y="16" width="900" height="26" rx="8" fill="#111827" stroke="#1F2937"/>
  <text x="140" y="34" font-family="monospace" font-size="14" fill="#9CA3AF">teraplay.ansarishakir.vercel.app</text><rect x="0" y="57" width="1600" height="64" fill="#111827"/><rect x="60" y="76" width="120" height="24" rx="6" fill="#F9FAFB"/><rect x="60" y="150" width="1200" height="56" rx="12" fill="#111827" stroke="#1F2937"/><text x="84" y="186" font-family="monospace" font-size="16" fill="#9CA3AF">Paste a Terabox link...</text><rect x="1290" y="150" width="250" height="56" rx="12" fill="#3B82F6"/><text x="1415" y="186" font-size="18" fill="#fff" text-anchor="middle">Play</text><rect x="60" y="240" width="1480" height="560" rx="16" fill="#000"/><circle cx="800" cy="520" r="60" fill="#3B82F6" opacity="0.9"/><polygon points="784,488 784,552 832,520" fill="#fff"/><rect x="90" y="730" width="1420" height="8" rx="4" fill="#1F2937"/><rect x="90" y="730" width="520" height="8" rx="4" fill="#3B82F6"/><circle cx="610" cy="734" r="10" fill="#3B82F6"/><text x="90" y="780" font-family="monospace" font-size="14" fill="#9CA3AF">02:14</text><text x="1510" y="780" font-family="monospace" font-size="14" fill="#9CA3AF" text-anchor="end">08:42</text><rect x="1320" y="772" width="20" height="16" rx="3" fill="#9CA3AF" opacity="0.5"/><rect x="1370" y="772" width="20" height="16" rx="3" fill="#9CA3AF" opacity="0.5"/><rect x="1420" y="772" width="20" height="16" rx="3" fill="#9CA3AF" opacity="0.5"/><rect x="1470" y="772" width="20" height="16" rx="3" fill="#9CA3AF" opacity="0.5"/></svg>